<svg width="85" height="75" viewBox="0 0 85 75" fill="none" xmlns="http://www.w3.org/2000/svg">
<g filter="url(#filter0_d_23_2)">
<path d="M42.4899 2L34.927 19.864H74L67.8617 34.017H56.6081L51.6974 43.9257H57.6934L32.2428 65L38.9921 48.0262L33.4461 48.0138L3 47.9455L22.438 2H32.2428H42.4899Z" fill="url(#paint0_linear_23_2)"/>
<path d="M34.927 19.864L42.4899 2H32.2428H22.438L3 47.9455L38.9921 48.0262L32.2428 65L57.6934 43.9257H51.6974L56.6081 34.017H67.8617L74 19.864H34.927ZM34.927 19.864L28.9856 33.669L40.4282 33.6771L33.44 48.0262M34.927 19.864H34.9193" stroke="#252525" stroke-width="3"/>
</g>
<defs>
<filter id="filter0_d_23_2" x="0.73877" y="0.5" width="83.5469" height="73.6553" filterUnits="userSpaceOnUse" color-interpolation-filters="sRGB">
<feFlood flood-opacity="0" result="BackgroundImageFix"/>
<feColorMatrix in="SourceAlpha" type="matrix" values="0 0 0 0 0 0 0 0 0 0 0 0 0 0 0 0 0 0 127 0" result="hardAlpha"/>
<feOffset dx="4" dy="4"/>
<feGaussianBlur stdDeviation="2"/>
<feComposite in2="hardAlpha" operator="out"/>
<feColorMatrix type="matrix" values="0 0 0 0 0 0 0 0 0 0 0 0 0 0 0 0 0 0 0.25 0"/>
<feBlend mode="normal" in2="BackgroundImageFix" result="effect1_dropShadow_23_2"/>
<feBlend mode="normal" in="SourceGraphic" in2="effect1_dropShadow_23_2" result="shape"/>
</filter>
<linearGradient id="paint0_linear_23_2" x1="40.7187" y1="26.3409" x2="38.639" y2="54.2717" gradientUnits="userSpaceOnUse">
<stop stop-color="#666CFF"/>
<stop offset="1" stop-color="#CACACA"/>
</linearGradient>
</defs>
</svg>
