<svg width="84" height="75" viewBox="0 0 84 75" fill="none" xmlns="http://www.w3.org/2000/svg">
<g filter="url(#filter0_d_42_35)">
<path d="M42.0461 1L34.3767 19.4311H74L67.7752 34.0335H56.3631L51.3833 44.2567H57.4638L31.6547 66L38.499 48.4873L32.8749 48.4745L2 48.4041L21.7118 1H31.6547H42.0461Z" fill="url(#paint0_linear_42_35)"/>
<path d="M34.3767 19.4311L42.0461 1H31.6547H21.7118L2 48.4041L38.499 48.4873L31.6547 66L57.4638 44.2567H51.3833L56.3631 34.0335H67.7752L74 19.4311H34.3767ZM34.3767 19.4311L28.3516 33.6744L39.9553 33.6827L32.8688 48.4873M34.3767 19.4311H34.3689" stroke="#252525" stroke-width="2"/>
</g>
<defs>
<filter id="filter0_d_42_35" x="0.502686" y="0" width="83.0107" height="74.7649" filterUnits="userSpaceOnUse" color-interpolation-filters="sRGB">
<feFlood flood-opacity="0" result="BackgroundImageFix"/>
<feColorMatrix in="SourceAlpha" type="matrix" values="0 0 0 0 0 0 0 0 0 0 0 0 0 0 0 0 0 0 127 0" result="hardAlpha"/>
<feOffset dx="4" dy="4"/>
<feGaussianBlur stdDeviation="2"/>
<feComposite in2="hardAlpha" operator="out"/>
<feColorMatrix type="matrix" values="0 0 0 0 0 0 0 0 0 0 0 0 0 0 0 0 0 0 0.25 0"/>
<feBlend mode="normal" in2="BackgroundImageFix" result="effect1_dropShadow_42_35"/>
<feBlend mode="normal" in="SourceGraphic" in2="effect1_dropShadow_42_35" result="shape"/>
</filter>
<linearGradient id="paint0_linear_42_35" x1="40.25" y1="26.1136" x2="38.0673" y2="54.9256" gradientUnits="userSpaceOnUse">
<stop stop-color="#666CFF"/>
<stop offset="1" stop-color="#CACACA"/>
</linearGradient>
</defs>
</svg>
