<svg width="65" height="56" viewBox="0 0 65 56" fill="none" xmlns="http://www.w3.org/2000/svg">
<g filter="url(#filter0_d_23_2)">
<path d="M31.4784 1L25.8328 14.0435H55L50.4179 24.3775H42.0173L38.3516 31.6124H42.8275L23.8291 47L28.8673 34.6064L24.7273 34.5974L2 34.5475L16.5101 1H23.8291H31.4784Z" fill="url(#paint0_linear_23_2)"/>
<path d="M25.8328 14.0435L31.4784 1H23.8291H16.5101L2 34.5475L28.8673 34.6064L23.8291 47L42.8275 31.6124H38.3516L42.0173 24.3775H50.4179L55 14.0435H25.8328ZM25.8328 14.0435L21.3977 24.1234L29.9394 24.1293L24.7228 34.6064M25.8328 14.0435H25.8271" stroke="#252525" stroke-width="2"/>
</g>
<defs>
<filter id="filter0_d_23_2" x="0.479492" y="0" width="64.0579" height="55.7771" filterUnits="userSpaceOnUse" color-interpolation-filters="sRGB">
<feFlood flood-opacity="0" result="BackgroundImageFix"/>
<feColorMatrix in="SourceAlpha" type="matrix" values="0 0 0 0 0 0 0 0 0 0 0 0 0 0 0 0 0 0 127 0" result="hardAlpha"/>
<feOffset dx="4" dy="4"/>
<feGaussianBlur stdDeviation="2"/>
<feComposite in2="hardAlpha" operator="out"/>
<feColorMatrix type="matrix" values="0 0 0 0 0 0 0 0 0 0 0 0 0 0 0 0 0 0 0.25 0"/>
<feBlend mode="normal" in2="BackgroundImageFix" result="effect1_dropShadow_23_2"/>
<feBlend mode="normal" in="SourceGraphic" in2="effect1_dropShadow_23_2" result="shape"/>
</filter>
<linearGradient id="paint0_linear_23_2" x1="30.1562" y1="18.7727" x2="28.6705" y2="39.1715" gradientUnits="userSpaceOnUse">
<stop stop-color="#666CFF"/>
<stop offset="1" stop-color="#CACACA"/>
</linearGradient>
</defs>
</svg>
