<svg width="38" height="38" viewBox="0 0 38 38" fill="none" xmlns="http://www.w3.org/2000/svg">
<g clip-path="url(#clip0_49_53)">
<path d="M16.9734 0.13944C10.2976 0.836107 4.3326 5.23119 1.62092 11.4508C-0.126571 15.4661 -0.417398 20.0894 0.823428 24.3457C2.3561 29.6528 6.32076 34.1365 11.4508 36.379C15.4661 38.1265 20.0894 38.4174 24.3459 37.1765C30.7168 35.3399 35.733 30.109 37.3797 23.6105C39.9505 13.4268 33.6428 3.01401 23.4334 0.582774C21.1909 0.0507736 19.2159 -0.0888131 16.9734 0.13944ZM17.2268 11.9068C18.8476 14.0601 20.2161 15.8334 20.2668 15.8334C20.3174 15.8334 22.0026 14.0601 23.9908 11.9068L27.6261 7.98011H29.6908L29.2474 8.44928C28.9941 8.71427 27.3474 10.5005 25.5868 12.4134C23.8261 14.3261 22.1034 16.1876 21.7609 16.5301L21.1534 17.1761L25.9034 23.4968C28.5128 26.9801 30.6534 29.8676 30.6534 29.9193C30.6534 29.9826 29.0959 30.0201 27.2076 30.0201L23.7501 30.0074L20.5328 25.7008C18.3161 22.7241 17.2774 21.444 17.1761 21.5208C17.1001 21.5841 15.3009 23.5226 13.1734 25.8274L9.3101 30.0201H8.33426C7.7901 30.0201 7.34676 29.9943 7.34676 29.9568C7.34676 29.9193 9.36076 27.7143 11.8176 25.0674C14.263 22.4201 16.2897 20.2034 16.3143 20.1659C16.3274 20.1143 14.3134 17.3661 11.8434 14.0601C9.37343 10.7668 7.34676 8.04344 7.34676 8.0176C7.34676 7.99303 8.90426 7.98011 10.8174 7.98011H14.2876L17.2268 11.9068Z" fill="black"/>
<path d="M10.4758 9.67733C10.5262 9.766 13.7175 14.0473 17.5433 19.1642L24.51 28.4871L26.0675 28.5C27.0304 28.5 27.6133 28.4493 27.5875 28.3733C27.5758 28.31 24.3962 24.0292 20.5458 18.8733L13.5275 9.5H11.9573C10.6532 9.5 10.3867 9.52584 10.4758 9.67733Z" fill="black"/>
</g>
<defs>
<clipPath id="clip0_49_53">
<rect width="38" height="38" fill="white"/>
</clipPath>
</defs>
</svg>
